#!OML:ASF X:\für Bonn\!DataBase\2005_08_12_Daniel\c3d\Daniel.ASF
:FULLY-SPECIFIED
:DEGREES
140
root -14.166 18.203 -13.2379 -175.659 -49.328 175.048
lowerback 8.81607 -6.45676 -3.72233
upperback 1.72106 -9.09133 -1.75124
thorax -2.82148 -4.53889 1.23113
lowerneck -11.5505 4.37618 -2.44629
upperneck 5.18762 6.31725 -1.65452
head 3.72645 2.97102 0.310011
rclavicle -1.54555e-014 -1.86858e-014
rhumerus -72.6975 13.5892 -100.334
rradius 88.9376
rwrist -5.86002
rhand -17.8021 25.7228
rfingers 7.12502
rthumb 8.46134 -4.08765
lclavicle -1.54555e-014 -1.86858e-014
lhumerus -50.5186 -3.04571 90.9182
lradius 118.194
lwrist 18.2183
lhand -14.6776 -14.8698
lfingers 7.12502
lthumb 11.4756 14.7961
rfemur -30.4563 -4.85759 18.5242
rtibia 59.9869
rfoot -3.36568 -1.47988
rtoes -8.98697
lfemur 10.8387 -2.39747 -26.7142
ltibia 27.6662
lfoot -2.36353 0.745837
ltoes -3.51371
141
root -14.4453 18.2977 -13.5206 -175.189 -49.3952 174.996
lowerback 8.08967 -6.57883 -3.5834
upperback 1.55651 -9.19755 -1.68927
thorax -2.59858 -4.59214 1.14802
lowerneck -11.6104 4.36586 -2.50771
upperneck 5.47554 6.31138 -1.4611
head 3.83132 2.97191 0.391192
rclavicle -1.82136e-013 -2.54444e-014
rhumerus -73.5288 14.0221 -100.448
rradius 89.0223
rwrist -6.04777
rhand -17.5707 25.1653
rfingers 7.12502
rthumb 8.68468 -4.63606
lclavicle -1.82136e-013 -2.54444e-014
lhumerus -50.4649 -3.81649 91.0475
lradius 118.843
lwrist 17.8704
lhand -13.8336 -15.0529
lfingers 7.12502
lthumb 12.2895 14.566
rfemur -30.2688 -4.40241 18.6637
rtibia 55.9421
rfoot -2.96475 -2.26471
rtoes -8.72353
lfemur 11.618 -2.40815 -26.4411
ltibia 26.8845
lfoot 0.694734 0.901066
ltoes -3.72134
142
root -14.7235 18.3859 -13.805 -174.722 -49.433 174.908
lowerback 7.40732 -6.67616 -3.51164
upperback 1.38742 -9.28095 -1.60475
thorax -2.39091 -4.63321 1.12531
lowerneck -11.6309 4.34999 -2.65562
upperneck 5.73763 6.30635 -1.25426
head 3.91614 2.9724 0.49059
rclavicle 1.78906e-013 1.94809e-014
rhumerus -74.2218 14.4342 -100.491
rradius 89.0753
rwrist -6.30004
rhand -17.1785 24.6808
rfingers 7.12502
rthumb 9.06314 -5.10444
lclavicle 1.78906e-013 1.94809e-014
lhumerus -50.5211 -4.68013 91.1533
lradius 119.438
lwrist 17.38
lhand -12.8176 -15.2964
lfingers 7.12502
lthumb 13.269 14.2612
rfemur -29.9778 -3.71631 18.7583
rtibia 51.8477
rfoot -2.74782 -3.30478
rtoes -8.48576
lfemur 12.3148 -2.71482 -26.3718
ltibia 26.3654
lfoot 3.35883 1.37531
ltoes -4.17187
143
root -15.0048 18.4757 -14.0888 -174.193 -49.4729 174.791
lowerback 6.70125 -6.77082 -3.39491
upperback 1.19132 -9.36048 -1.54981
thorax -2.20976 -4.67206 1.04641
lowerneck -11.6077 4.32713 -2.76374
upperneck 5.96738 6.28219 -1.03822
head 3.98237 2.96605 0.583259
rclavicle -4.60187e-014 -2.82274e-014
rhumerus -74.8419 14.7782 -100.532
rradius 89.1133
rwrist -6.59498
rhand -16.6727 24.3519
rfingers 7.12502
rthumb 9.55112 -5.41164
lclavicle -4.60187e-014 -2.82274e-014
lhumerus -50.7942 -5.59931 91.2069
lradius 120.025
lwrist 16.8007
lhand -11.6994 -15.6456
lfingers 7.12502
lthumb 14.3467 13.8387
rfemur -29.6726 -2.74854 18.7452
rtibia 47.7828
rfoot -2.84944 -4.6124
rtoes -7.7522
lfemur 12.8507 -3.13226 -26.4075
ltibia 26.1122
lfoot 5.71641 1.94225
ltoes -4.49487
144
root -15.2893 18.5651 -14.3734 -173.622 -49.4606 174.639
lowerback 5.9848 -6.83475 -3.24926
upperback 0.977584 -9.40219 -1.53683
thorax -2.05376 -4.69229 0.90664
lowerneck -11.4719 4.30682 -2.82398
upperneck 6.1203 6.24662 -0.809888
head 4.0002 2.95848 0.666067
rclavicle 3.42407e-014 -3.06128e-014
rhumerus -75.4401 15.0248 -100.576
rradius 89.1021
rwrist -6.8922
rhand -16.1728 24.2812
rfingers 7.12502
rthumb 10.0334 -5.45963
lclavicle 3.42407e-014 -3.06128e-014
lhumerus -51.3764 -6.5213 91.2749
lradius 120.647
lwrist 16.0429
lhand -10.5505 -16.2387
lfingers 7.12502
lthumb 15.4535 13.1636
rfemur -29.3559 -1.6237 18.5724
rtibia 43.8613
rfoot -3.207 -6.01753
rtoes -6.54527
lfemur 13.2416 -3.55729 -26.5415
ltibia 26.167
lfoot 7.66933 2.5752
ltoes -4.68102
145
root -15.5678 18.6416 -14.6566 -173.073 -49.4192 174.492
lowerback 5.3471 -6.8772 -3.13356
upperback 0.7559 -9.42406 -1.52041
thorax -1.94444 -4.70194 0.795588
lowerneck -11.3571 4.28841 -2.86232
upperneck 6.28601 6.21154 -0.594685
head 4.02823 2.95047 0.741799
rclavicle -1.0297e-013 1.27222e-014
rhumerus -75.9682 15.1901 -100.574
rradius 88.9608
rwrist -7.16153
rhand -15.6855 24.4227
rfingers 7.12502
rthumb 10.5035 -5.29487
lclavicle -1.0297e-013 1.27222e-014
lhumerus -52.1506 -7.47368 91.3679
lradius 121.203
lwrist 15.2602
lhand -9.55453 -17.077
lfingers 7.12502
lthumb 16.4126 12.2486
rfemur -29.0773 -0.346 18.2821
rtibia 40.1976
rfoot -3.83419 -7.49342
rtoes -5.66041
lfemur 13.4866 -3.79047 -26.6357
ltibia 26.5844
lfoot 9.20906 2.97831
ltoes -4.99459
146
root -15.839 18.6958 -14.9373 -172.562 -49.3411 174.31
lowerback 4.81687 -6.88237 -3.0955
upperback 0.552839 -9.40736 -1.49699
thorax -1.86273 -4.69214 0.743018
lowerneck -11.1201 4.26142 -2.91215
upperneck 6.30982 6.15994 -0.400334
head 3.98176 2.93597 0.804551
rclavicle 1.26079e-013 2.10712e-014
rhumerus -76.4198 15.2564 -100.496
rradius 88.7195
rwrist -7.4006
rhand -15.318 24.7179
rfingers 7.12502
rthumb 10.8581 -4.98142
lclavicle 1.26079e-013 2.10712e-014
lhumerus -52.9795 -8.55154 91.5172
lradius 121.582
lwrist 14.4928
lhand -8.89986 -17.9948
lfingers 7.12502
lthumb 17.0428 11.2776
rfemur -28.8782 0.867055 17.9177
rtibia 36.8793
rfoot -4.63671 -8.84065
rtoes -5.87204
lfemur 13.5962 -3.81824 -26.7057
ltibia 27.4272
lfoot 10.2548 3.08219
ltoes -5.52502
147
root -16.1089 18.7227 -15.2151 -172.193 -49.2297 174.117
lowerback 4.40951 -6.84697 -3.08085
upperback 0.426696 -9.34341 -1.48394
thorax -1.76896 -4.66035 0.700659
lowerneck -10.8582 4.2142 -3.00299
upperneck 6.24267 6.08272 -0.190743
head 3.89682 2.90988 0.874969
rclavicle 6.61456e-014 -4.77083e-015
rhumerus -76.6837 15.2585 -100.322
rradius 88.3108
rwrist -7.64517
rhand -15.0801 25.1437
rfingers 7.12502
rthumb 11.0875 -4.54338
lclavicle 6.61456e-014 -4.77083e-015
lhumerus -53.784 -9.69993 91.7218
lradius 121.789
lwrist 13.8895
lhand -8.51268 -18.9071
lfingers 7.12502
lthumb 17.4155 10.3327
rfemur -28.674 2.06665 17.4809
rtibia 33.9686
rfoot -5.56455 -9.98485
rtoes -5.85063
lfemur 13.6517 -3.67464 -26.7527
ltibia 28.7138
lfoot 10.7014 2.94156
ltoes -6.38476
148
root -16.3786 18.7312 -15.49 -172.008 -49.0874 173.936
lowerback 4.16606 -6.78279 -3.09247
upperback 0.378843 -9.24814 -1.46823
thorax -1.68164 -4.61363 0.689543
lowerneck -10.624 4.16374 -3.13205
upperneck 6.1263 6.00724 0.00651275
head 3.79976 2.88315 0.947781
rclavicle 9.41991e-014 -1.31198e-014
rhumerus -76.7258 15.2726 -100.106
rradius 87.7081
rwrist -7.9345
rhand -15.079 25.5315
rfingers 7.12502
rthumb 11.0885 -4.15554
lclavicle 9.41991e-014 -1.31198e-014
lhumerus -54.5843 -10.836 92.0052
lradius 121.922
lwrist 13.4869
lhand -8.42025 -19.5272
lfingers 7.12502
lthumb 17.5044 9.70474
rfemur -28.3638 3.21489 17.0974
rtibia 31.4838
rfoot -6.56811 -11.0448
rtoes -6.66901
lfemur 13.6829 -3.37068 -26.7423
ltibia 30.3654
lfoot 10.7081 2.63421
ltoes -7.68008
149
root -16.648 18.7275 -15.7617 -172.073 -48.9164 173.769
lowerback 4.18019 -6.68581 -3.1448
upperback 0.418981 -9.11952 -1.4293
thorax -1.63757 -4.54999 0.749235
lowerneck -10.5108 4.0941 -3.43021
upperneck 6.00118 5.9286 0.261954
head 3.71748 2.85249 1.0728
rclavicle 2.70844e-014 0
rhumerus -76.5572 15.3745 -99.817
rradius 86.9504
rwrist -8.29332
rhand -15.3401 25.8753
rfingers 7.12502
rthumb 10.8367 -3.82508
lclavicle 2.70844e-014 0
lhumerus -55.306 -11.8764 92.3974
lradius 121.972
lwrist 13.2618
lhand -8.48773 -19.7367
lfingers 7.12502
lthumb 17.4395 9.50096
rfemur -27.7964 4.43141 16.7316
rtibia 29.4383
rfoot -7.87505 -12.1402
rtoes -7.94563
lfemur 13.8194 -3.27967 -26.8595
ltibia 32.2628
lfoot 10.3587 2.66009
ltoes -8.95102
150
root -16.918 18.7127 -16.0326 -172.142 -48.7235 173.378
lowerback 4.36236 -6.56168 -3.35618
upperback 0.532223 -8.9722 -1.45272
thorax -1.59845 -4.47812 0.845796
lowerneck -10.4798 4.01358 -3.72286
upperneck 5.86113 5.83887 0.49818
head 3.64828 2.81527 1.19229
rclavicle -8.97513e-014 -2.34566e-014
rhumerus -76.1802 15.4566 -99.5186
rradius 86.0017
rwrist -8.66725
rhand -15.8075 26.1831
rfingers 7.12502
rthumb 10.3858 -3.54044
lclavicle -8.97513e-014 -2.34566e-014
lhumerus -55.9371 -12.8011 92.7938
lradius 121.948
lwrist 13.2198
lhand -8.61193 -19.521
lfingers 7.12502
lthumb 17.32 9.72726
rfemur -27.1379 5.99714 16.0934
rtibia 27.8626
rfoot -9.58445 -13.3856
rtoes -8.35879
lfemur 13.9661 -3.16379 -27.1388
ltibia 34.382
lfoot 9.89364 2.69652
ltoes -10.1334
151
root -17.1892 18.6806 -16.3037 -172.231 -48.4888 172.831
lowerback 4.6811 -6.40236 -3.70123
upperback 0.674378 -8.79435 -1.50984
thorax -1.59293 -4.39121 0.992895
lowerneck -10.3181 3.94311 -3.9629
upperneck 5.62357 5.75366 0.663993
head 3.52362 2.78006 1.27289
rclavicle 5.66039e-014 -8.94531e-015
rhumerus -75.6465 15.5398 -99.2016
rradius 84.9278
rwrist -9.00493
rhand -16.4412 26.344
rfingers 7.12502
rthumb 9.77455 -3.40919
lclavicle 5.66039e-014 -8.94531e-015
lhumerus -56.6242 -13.4961 93.2519
lradius 121.864
lwrist 13.2223
lhand -8.66453 -18.9288
lfingers 7.12502
lthumb 17.2693 10.3239
rfemur -26.5046 7.55259 15.4187
rtibia 26.8067
rfoot -11.013 -14.5922
rtoes -7.8485
lfemur 14.1434 -2.92746 -27.493
ltibia 36.7093
lfoot 9.33096 2.64458
ltoes -10.957
